<svg viewBox="0 0 100 100" width="100" height="100" xmlns="http://www.w3.org/2000/svg" role="img" aria-label="Sandsprite Kennels logo — a person walking with a dog, after the kennel's sign">
  <circle cx="50" cy="50" r="49" fill="#f1e2d0"/>
  <g fill="#3d2a1c">
    <!-- ground line -->
    <rect x="12" y="74" width="76" height="3" rx="1.5"/>

    <!-- dog: body, head, ears, snout, tail, legs (simple geometric silhouette, side profile facing right) -->
    <g>
      <path d="M14 66q-6-3-3-11" fill="none" stroke="#3d2a1c" stroke-width="4" stroke-linecap="round"/>
      <ellipse cx="27" cy="65" rx="13" ry="7"/>
      <circle cx="41" cy="58" r="7"/>
      <path d="M47 56l6 1-1 3-5-1z"/>
      <path d="M37 52l1-7 3 7z"/>
      <path d="M42 51l1-7 3 7z"/>
      <rect x="20" y="70" width="4" height="9" rx="2"/>
      <rect x="33" y="70" width="4" height="9" rx="2"/>
    </g>

    <!-- walking figure: hat, head, torso, arms, legs -->
    <g>
      <ellipse cx="66" cy="24" rx="10" ry="3"/>
      <path d="M58 24a8 6 0 0 1 16 0z"/>
      <circle cx="66" cy="27" r="7"/>
      <path d="M60 34h12l2 22-7 2-1-14-2 14h-7z"/>
      <path d="M60 35l-7 11 3 3 7-11z"/>
      <path d="M72 35l8 9-3 3-8-9z"/>
      <rect x="60" y="56" width="4.5" height="20" rx="2"/>
      <rect x="68" y="56" width="4.5" height="20" rx="2"/>
    </g>
  </g>
</svg>
